<svg id="Layer_1" data-name="Layer 1" xmlns="http://www.w3.org/2000/svg" xmlns:xlink="http://www.w3.org/1999/xlink" viewBox="0 0 404.96 79.7"><defs><style>.cls-1{fill:#3a474d;}.cls-2{fill:url(#linear-gradient);}.cls-3{fill:url(#linear-gradient-2);}.cls-4{fill:#fff;}</style><linearGradient id="linear-gradient" x1="29.18" y1="2.17" x2="29.18" y2="81.87" gradientUnits="userSpaceOnUse"><stop offset="0" stop-color="#ea3b6d"/><stop offset="0.75" stop-color="#e35e59"/></linearGradient><linearGradient id="linear-gradient-2" x1="31.59" y1="2.17" x2="31.59" y2="81.87" xlink:href="#linear-gradient"/></defs><title>analyticsfire-logo</title><path class="cls-1" d="M90.17,22.18L109.32,61h-8.65L97.82,55.2H82.47L79.63,61H71Zm4.64,26.11-4.69-9.65-4.64,9.65h9.34Z" transform="translate(-1 -2.17)"/><path class="cls-1" d="M112.54,34.47h7.86v3.32c1.11-2.32,4.06-3.9,7.75-3.9,6.54,0,10.18,4.17,10.18,11V61h-7.86V45.86c0-3.06-1.69-5-4.85-5a5.06,5.06,0,0,0-5.22,5.27V61h-7.86V34.47Z" transform="translate(-1 -2.17)"/><path class="cls-1" d="M153.57,44.54c3.59-.32,5.38-0.74,5.38-2.43,0-1.27-1-2.22-3.59-2.22a9.07,9.07,0,0,0-7.07,3.32l-4.64-4a13.94,13.94,0,0,1,11.6-5.64c7.12,0,11.39,3.32,11.39,9v10c0,2,.9,2.06,2,2.06h0.16v6.22a6.67,6.67,0,0,1-3.16.58,5.22,5.22,0,0,1-3.74-1.16,3.88,3.88,0,0,1-1.21-1.74c-1.9,2.27-5.33,3.16-9,3.16-5.91,0-9.92-3.16-9.92-8.12C141.81,48.18,145.4,45.33,153.57,44.54ZM153,55.25c3.59,0,6-1.53,6-4.69v-2c-0.79.69-2.58,0.79-5.17,1.21-2.37.37-4.33,1-4.33,3C149.46,54.35,150.67,55.25,153,55.25Z" transform="translate(-1 -2.17)"/><path class="cls-1" d="M172.19,24.29h7.86v26.9c0,2.43.9,3.43,3.06,3.43a7.77,7.77,0,0,0,1.9-.21v7a17.14,17.14,0,0,1-3.74.37c-3.74,0-9.07-1.16-9.07-9.34V24.29Z" transform="translate(-1 -2.17)"/><path class="cls-1" d="M191.5,65.74a3.53,3.53,0,0,0,2.27-.58,3.07,3.07,0,0,0,1.11-1.69l0.42-1.16L184,34.47h8l7.23,18.46,6.54-18.46h8l-11.81,30.8a12.37,12.37,0,0,1-3.06,4.91,10.36,10.36,0,0,1-7.12,2.32,16.36,16.36,0,0,1-3.48-.37v-6.8A11,11,0,0,0,191.5,65.74Z" transform="translate(-1 -2.17)"/><path class="cls-1" d="M219.72,41.59h-3.48V34.47h3.48V24.29h7.65V34.47h5.91v7.12h-5.91v9.49c0,2.58,1.05,3.53,3.38,3.53a14.42,14.42,0,0,0,2-.21v7a18.61,18.61,0,0,1-3.85.37c-3.9,0-9.18-1.16-9.18-9.49V41.59Z" transform="translate(-1 -2.17)"/><path class="cls-1" d="M236.65,27.77a4.48,4.48,0,1,1,4.48,4.43A4.48,4.48,0,0,1,236.65,27.77Zm0.58,6.7h7.86V61h-7.86V34.47Z" transform="translate(-1 -2.17)"/><path class="cls-1" d="M263.6,33.62a14.24,14.24,0,0,1,11.08,5l-5,4.91a7.72,7.72,0,0,0-6.12-2.74,6.94,6.94,0,0,0,0,13.87,7.72,7.72,0,0,0,6.12-2.74l5,4.91a14.24,14.24,0,0,1-11.08,5c-8.12,0-14.66-5.91-14.66-14S255.48,33.62,263.6,33.62Z" transform="translate(-1 -2.17)"/><path class="cls-1" d="M280.69,52.19a9.67,9.67,0,0,0,7.28,2.9c2.8,0,4-.9,4-2.16,0-1.79-3.64-2-7.7-3.32-3.69-1.27-6.12-3.38-6.12-7.38,0-5.7,5-8.54,10.34-8.54a12.51,12.51,0,0,1,9.12,3.43l-3.74,5.17a8,8,0,0,0-5.59-2c-1.79,0-2.64.79-2.64,1.69,0,1.79,2.16,1.48,7.28,3.27,4.8,1.63,6.54,4.17,6.54,7.54,0,5.12-3.59,9-11.71,9-6,0-9.6-2.27-11.6-4.75Z" transform="translate(-1 -2.17)"/><path class="cls-1" d="M314.92,24.29h24.21v7.38H323v7.54h14.66v7.23H323V61h-8.12V24.29Z" transform="translate(-1 -2.17)"/><path class="cls-1" d="M343.78,27.77a4.48,4.48,0,1,1,4.48,4.43A4.48,4.48,0,0,1,343.78,27.77Zm0.58,6.7h7.86V61h-7.86V34.47Z" transform="translate(-1 -2.17)"/><path class="cls-1" d="M358,34.47h7.86v3.64c1.21-2.69,4.06-4.22,7.7-4.22a18.25,18.25,0,0,1,2.06.16v7.38a12.72,12.72,0,0,0-2.64-.26c-4.48,0-7.12,2.58-7.12,6.91V61H358V34.47Z" transform="translate(-1 -2.17)"/><path class="cls-1" d="M377.9,47.71c0-8.49,6.12-13.92,14.4-13.92s13.66,6,13.66,13.5c0,0,0,1.32-.11,2.53h-20.1c0.16,3.16,2.9,5.22,7.07,5.22a8.7,8.7,0,0,0,6.49-2.58l4.59,4.38a15.11,15.11,0,0,1-11.45,4.85c-8.65,0-14.56-5.43-14.56-13.77V47.71Zm20.15-3c0-2.43-2.58-4.43-5.75-4.43-3.43,0-6.22,2-6.43,4.43H398Z" transform="translate(-1 -2.17)"/><path class="cls-2" d="M13.75,55.45a4.43,4.43,0,0,1,.72.14L28.26,27.26a4.37,4.37,0,1,1,5,0l5.76,11.13a4.43,4.43,0,0,1,.79,0A4.52,4.52,0,0,1,44.15,42h9.62C46.18,24.39,31.37,2.17,31.37,2.17S4.59,43.07,4.59,57.46c0,0.52,0,1,.07,1.54H9.44A4.37,4.37,0,0,1,13.75,55.45Z" transform="translate(-1 -2.17)"/><path class="cls-3" d="M39.85,47a4.37,4.37,0,0,1-3.6-6.87L30.82,29.6l-13.5,27.7a4.18,4.18,0,0,1,.82,2.48,4.29,4.29,0,0,1-4.39,4.27C12.28,64.06,11,64,10.19,62H5A26,26,0,0,0,23.39,81.87a2.34,2.34,0,0,1,0-.5,8.6,8.6,0,0,1,.16-1.29,11.14,11.14,0,0,1,1-2.82c1.61-3,9.12-9,10.95-15a12.34,12.34,0,0,0,0-6.82c0.76,0.38,13.79,7.2,14.28,20,0,0.2,0,.39,0,0.59a25,25,0,0,0,8.36-18.56c0-3.22-1.22-7.59-3.14-12.46H43.49A4.87,4.87,0,0,1,39.85,47Z" transform="translate(-1 -2.17)"/><path class="cls-4" d="M1,59v3H5a24.52,24.52,0,0,1-.37-3H1Z" transform="translate(-1 -2.17)"/></svg>